HIERARCHY
ROOT SpineBase
{
  OFFSET 0.000000 0.000000 0.000000
  CHANNELS 6 Xposition Yposition Zposition Zrotation Xrotation Yrotation
  JOINT SpineMid
  {
    OFFSET 0.000000 31.987068 0.000000
    CHANNELS 3 Zrotation Xrotation Yrotation
    JOINT SpineShoulder
    {
      OFFSET 0.031225 23.737473 -0.924304
      CHANNELS 3 Zrotation Xrotation Yrotation
      JOINT Neck
      {
        OFFSET 0.079203 7.849917 -0.640130
        CHANNELS 3 Zrotation Xrotation Yrotation
        JOINT Head
        {
          OFFSET 5.040241 11.885778 5.983916
          CHANNELS 3 Zrotation Xrotation Yrotation
          End Site
          {
            OFFSET 0 0 0
          }
        }
      }
      JOINT ShoulderLeft
      {
        OFFSET -8.485182 -3.241474 -14.354165
        CHANNELS 3 Zrotation Xrotation Yrotation
        JOINT ElbowLeft
        {
          OFFSET -6.409984 -27.784435 -8.925127
          CHANNELS 3 Zrotation Xrotation Yrotation
          JOINT WristLeft
          {
            OFFSET 1.907495 -23.583138 -4.971121
            CHANNELS 3 Zrotation Xrotation Yrotation
            JOINT HandLeft
            {
              OFFSET 0.600968 -7.235358 1.485614
              CHANNELS 3 Zrotation Xrotation Yrotation
              JOINT HandTipLeft
              {
                OFFSET 1.084544 -5.971448 0.990354
                CHANNELS 3 Zrotation Xrotation Yrotation
                End Site
                {
                  OFFSET 0 0 0
                }
              }
              JOINT ThumbLeft
              {
                OFFSET 3.073439 0.720751 -0.269731
                CHANNELS 3 Zrotation Xrotation Yrotation
                End Site
                {
                  OFFSET 0 0 0
                }
              }
            }
          }
        }
      }
      JOINT ShoulderRight
      {
        OFFSET 9.350658 -6.577249 10.886587
        CHANNELS 3 Zrotation Xrotation Yrotation
        JOINT ElbowRight
        {
          OFFSET 1.697798 -25.519695 11.442673
          CHANNELS 3 Zrotation Xrotation Yrotation
          JOINT WristRight
          {
            OFFSET 2.405979 -23.727669 -2.507669
            CHANNELS 3 Zrotation Xrotation Yrotation
            JOINT HandRight
            {
              OFFSET 0.531792 -7.230615 -0.868500
              CHANNELS 3 Zrotation Xrotation Yrotation
              JOINT HandTipRight
              {
                OFFSET 0.868826 -4.801902 -0.893220
                CHANNELS 3 Zrotation Xrotation Yrotation
                End Site
                {
                  OFFSET 0 0 0
                }
              }
              JOINT ThumbRight
              {
                OFFSET 1.604492 0.300968 -3.309323
                CHANNELS 3 Zrotation Xrotation Yrotation
                End Site
                {
                  OFFSET 0 0 0
                }
              }
            }
          }
        }
      }
    }
  }
  JOINT HipLeft
  {
    OFFSET -4.303034 1.059787 -8.602821
    CHANNELS 3 Zrotation Xrotation Yrotation
    JOINT KneeLeft
    {
      OFFSET -10.558785 -35.758047 -3.713519
      CHANNELS 3 Zrotation Xrotation Yrotation
      JOINT AnkleLeft
      {
        OFFSET -10.914277 -37.448073 -0.587115
        CHANNELS 3 Zrotation Xrotation Yrotation
        JOINT FootLeft
        {
          OFFSET -1.991048 -6.339755 -8.783471
          CHANNELS 3 Zrotation Xrotation Yrotation
          End Site
          {
            OFFSET 0 0 0
          }
        }
      }
    }
  }
  JOINT HipRight
  {
    OFFSET 5.009701 0.388448 1.467878
    CHANNELS 3 Zrotation Xrotation Yrotation
    JOINT KneeRight
    {
      OFFSET -3.538782 -38.688256 5.460282
      CHANNELS 3 Zrotation Xrotation Yrotation
      JOINT AnkleRight
      {
        OFFSET -6.772999 -34.366780 6.970842
        CHANNELS 3 Zrotation Xrotation Yrotation
        JOINT FootRight
        {
          OFFSET 2.384179 -8.272310 -4.865104
          CHANNELS 3 Zrotation Xrotation Yrotation
          End Site
          {
            OFFSET 0 0 0
          }
        }
      }
    }
  }
}
MOTION
Frames: 16
Frame Time: 0.033333
-34.540344 82.610409 352.055662 0.699051 1.162567 -35.448860 0.215147 0.413970 35.485512 0.449987 0.421329 0.067618 0.193328 -10.053993 2.785970 0.000000 0.000000 0.000000 -0.581093 -3.742323 0.045836 1.632106 5.957136 -0.516834 -1.230487 -6.151336 0.348492 -2.575580 16.052612 2.513896 0.000000 0.000000 0.000000 0.000000 0.000000 0.000000 37.469599 54.521176 2.510712 42.861976 32.321657 -27.957431 -17.249815 32.976196 -45.563158 11.348990 -4.639993 33.254811 0.000000 0.000000 0.000000 0.000000 0.000000 0.000000 0.246664 0.862858 34.788142 -1.380926 -1.738242 0.634518 -0.363739 -5.128042 2.235430 0.000000 0.000000 0.000000 -1.832379 -1.472873 35.068967 1.520669 -2.413070 0.583027 -2.664103 4.841758 2.526015 0.000000 0.000000 0.000000
-34.694068 82.669120 351.762786 0.640731 1.597634 -33.016405 0.325469 0.276688 33.051582 0.498907 0.422481 0.068834 1.210779 -10.814937 2.618880 0.000000 0.000000 0.000000 -0.450051 -4.190828 0.055750 1.521555 6.968201 -0.474199 -1.030491 -8.000662 0.280154 -1.190664 17.531757 2.658948 0.000000 0.000000 0.000000 0.000000 0.000000 0.000000 43.072310 60.075302 -0.876765 45.046234 31.279365 -27.565953 -19.038470 32.954832 -55.172607 11.250789 0.145736 39.404470 0.000000 0.000000 0.000000 0.000000 0.000000 0.000000 0.690083 0.905466 32.249905 -1.686750 -2.003310 0.735425 -0.329847 -5.541584 2.337051 0.000000 0.000000 0.000000 -1.440763 -1.821170 32.659849 1.346864 -2.863709 0.652567 -2.510558 6.583767 2.744726 0.000000 0.000000 0.000000
-34.844354 82.722124 351.435003 0.604308 2.022058 -30.513066 0.373476 0.145791 30.545638 0.546234 0.403838 0.069932 2.302079 -11.720209 2.517381 0.000000 0.000000 0.000000 -0.437734 -4.944626 0.176519 1.189350 7.639562 -0.485624 0.073681 -8.544012 0.426049 -2.021034 19.270004 2.821597 0.000000 0.000000 0.000000 0.000000 0.000000 0.000000 48.074269 64.646238 -4.901531 45.275704 29.495488 -24.902822 -24.549174 34.906865 -66.663234 14.982572 7.841189 52.627847 0.000000 0.000000 0.000000 0.000000 0.000000 0.000000 1.165571 0.670260 29.721493 -1.921444 -2.034155 0.763780 -0.415424 -5.077836 2.290745 0.000000 0.000000 0.000000 -1.101194 -2.075417 30.183926 1.077121 -3.545871 0.739853 -2.277986 6.906367 2.455873 0.000000 0.000000 0.000000
-34.970172 82.771627 351.096751 0.628764 2.405392 -28.181328 0.346509 0.066473 28.210170 0.572537 0.384472 0.070266 3.408726 -12.850396 2.529822 0.000000 0.000000 0.000000 -0.553254 -6.026765 0.398050 0.894096 8.165075 -0.606794 1.120979 -7.955791 0.576833 -3.464364 21.152309 3.147247 0.000000 0.000000 0.000000 0.000000 0.000000 0.000000 50.256875 67.061763 -7.285722 45.076778 29.339167 -23.306754 -25.186814 36.873600 -73.224867 14.823424 11.578819 60.148091 0.000000 0.000000 0.000000 0.000000 0.000000 0.000000 1.612767 0.195331 27.438672 -2.119025 -1.843498 0.727627 -0.586020 -3.948780 2.130444 0.000000 0.000000 0.000000 -0.852697 -2.265107 27.879409 0.724766 -4.351907 0.825699 -2.458691 6.226874 2.154584 0.000000 0.000000 0.000000
-35.102991 82.805488 350.775070 0.686145 2.720234 -26.216001 0.250424 0.046492 26.238641 0.573749 0.346406 0.068613 4.554438 -14.021805 2.598212 0.000000 0.000000 0.000000 -0.636798 -7.257362 0.657034 0.467551 8.514410 -0.739913 2.311558 -5.998758 0.765073 -5.659950 19.422669 2.818783 0.000000 0.000000 0.000000 0.000000 0.000000 0.000000 47.359259 67.030919 -6.085650 46.273461 31.379502 -22.763303 -26.324659 31.887794 -68.454490 11.728107 10.783891 52.293934 0.000000 0.000000 0.000000 0.000000 0.000000 0.000000 1.917665 -0.080751 25.465148 -2.346878 -1.831759 0.743898 -0.714260 -3.363655 2.106649 0.000000 0.000000 0.000000 -0.641270 -2.292075 25.945960 0.281943 -5.219901 0.895165 -2.674316 5.169963 1.781653 0.000000 0.000000 0.000000
-35.284557 82.827158 350.438488 0.713079 2.986807 -24.795826 0.140169 0.039188 24.810555 0.563238 0.272961 0.065035 5.467020 -15.016136 2.743949 0.000000 0.000000 0.000000 -0.780095 -8.471928 0.958279 -0.062538 8.592647 -0.871460 3.018762 -3.867839 0.691804 -8.390584 18.973974 2.832549 0.000000 0.000000 0.000000 0.000000 0.000000 0.000000 39.301497 64.418428 -1.854102 49.405120 35.090448 -21.819158 -22.810537 24.283859 -55.949393 6.267051 6.531815 35.568222 0.000000 0.000000 0.000000 0.000000 0.000000 0.000000 2.355898 -0.324523 24.054668 -2.692642 -1.739786 0.748540 -0.813964 -3.015276 2.126045 0.000000 0.000000 0.000000 -0.358290 -2.260085 24.570444 -0.156154 -5.923151 0.937387 -2.967542 3.924497 1.415113 0.000000 0.000000 0.000000
-35.478244 82.832192 350.144478 0.725667 3.163532 -23.709095 0.023691 0.067255 23.715989 0.533107 0.201151 0.059047 6.185872 -15.742225 2.868867 0.000000 0.000000 0.000000 -0.945247 -9.588444 1.259057 -0.640130 8.612348 -0.972334 3.195017 -2.471085 0.395264 -10.429858 18.026304 2.764252 0.000000 0.000000 0.000000 0.000000 0.000000 0.000000 32.014077 60.161465 1.789316 54.231263 40.572422 -24.262095 -18.006435 15.647798 -42.511131 -1.871574 7.377582 19.060123 0.000000 0.000000 0.000000 0.000000 0.000000 0.000000 2.797773 -0.428553 22.960465 -3.091917 -1.687848 0.769088 -0.872211 -3.100758 2.237150 0.000000 0.000000 0.000000 -0.055878 -2.195336 23.537706 -0.541400 -6.415714 0.958848 -3.764229 1.969147 1.156407 0.000000 0.000000 0.000000
-35.679762 82.806467 349.919138 0.704198 3.208498 -23.025394 -0.092385 0.123938 23.025403 0.485711 0.132345 0.050281 6.649514 -16.187154 2.999408 0.000000 0.000000 0.000000 -1.038967 -10.502548 1.530771 -1.275463 8.675199 -1.010591 3.594155 -1.855073 0.106933 -13.021401 19.123349 3.201153 0.000000 0.000000 0.000000 0.000000 0.000000 0.000000 30.488641 59.078669 2.500439 54.818909 41.187220 -24.069680 -17.308366 17.954368 -43.820012 -2.062654 5.676358 18.878687 0.000000 0.000000 0.000000 0.000000 0.000000 0.000000 3.118330 -0.435631 22.275074 -3.220080 -2.416423 1.011981 -1.002873 -2.426460 2.022787 0.000000 0.000000 0.000000 0.248596 -2.006927 22.911480 -0.896970 -6.759563 0.960697 -4.725483 0.280313 1.104952 0.000000 0.000000 0.000000
-35.900652 82.761405 349.754572 0.606994 3.176469 -22.704334 -0.153104 0.196772 22.701274 0.439766 0.088096 0.040526 6.956131 -16.426000 3.104452 0.000000 0.000000 0.000000 -1.283656 -11.284107 1.816425 -1.458773 8.949024 -1.158565 2.769069 -2.536473 -0.430722 -13.713722 18.255831 3.293542 0.000000 0.000000 0.000000 0.000000 0.000000 0.000000 28.776430 57.109374 3.404764 55.874651 41.773482 -24.362249 -16.378706 21.921577 -46.478256 -0.740991 2.841168 20.950329 0.000000 0.000000 0.000000 0.000000 0.000000 0.000000 3.454242 -0.374275 21.964665 -3.331061 -2.408925 1.036868 -1.190969 -2.282947 2.058031 0.000000 0.000000 0.000000 0.607776 -1.770815 22.651903 -1.171312 -6.881034 0.945346 -5.565301 0.084203 1.507944 0.000000 0.000000 0.000000
-36.156660 82.708266 349.597173 0.439131 3.159706 -22.425157 -0.145712 0.243548 22.422067 0.422777 0.066936 0.032833 6.976616 -16.518419 3.225760 0.000000 0.000000 0.000000 -1.499359 -11.797283 2.027924 -1.449943 9.085482 -1.307745 -0.932173 -2.087960 -1.437568 -10.265646 17.331656 3.863087 0.000000 0.000000 0.000000 0.000000 0.000000 0.000000 28.432415 56.735568 3.593735 55.974025 42.229768 -24.656833 -15.421809 23.411308 -47.330168 -1.438565 1.805526 20.139733 0.000000 0.000000 0.000000 0.000000 0.000000 0.000000 3.877817 -0.295237 21.697271 -3.445888 -2.378919 1.057032 -1.382244 -2.294599 2.131692 0.000000 0.000000 0.000000 1.047716 -1.565081 22.438874 -1.410601 -6.974063 0.937626 -6.117755 0.881752 2.046997 0.000000 0.000000 0.000000
-36.415138 82.643440 349.448969 0.233814 3.154398 -22.201619 -0.123936 0.277407 22.198751 0.413529 0.047476 0.024710 6.865241 -16.528975 3.357683 0.000000 0.000000 0.000000 -1.647095 -12.095038 2.180880 -1.444382 9.194529 -1.393810 -5.206460 -0.333873 -2.319268 -5.308129 14.364315 3.952768 0.000000 0.000000 0.000000 0.000000 0.000000 0.000000 29.663013 57.664710 3.240462 55.070406 41.827377 -24.710090 -16.503624 24.289424 -49.736167 -0.484160 2.774923 23.045600 0.000000 0.000000 0.000000 0.000000 0.000000 0.000000 4.338754 -0.248663 21.498740 -3.488922 -2.315854 1.068235 -1.717984 -1.969265 2.217515 0.000000 0.000000 0.000000 1.515470 -1.392948 22.280144 -1.605523 -7.034272 0.935868 -6.946500 1.961569 2.867816 0.000000 0.000000 0.000000
-36.644986 82.585206 349.317865 0.037883 3.168219 -22.102227 -0.093974 0.296647 22.099850 0.408036 0.024775 0.017483 6.805453 -16.580837 3.487385 0.000000 0.000000 0.000000 -1.737539 -12.087219 2.246347 -1.362246 9.285277 -1.416588 -10.479920 2.784026 -2.955773 2.031087 9.965378 4.239588 0.000000 0.000000 0.000000 0.000000 0.000000 0.000000 27.592560 55.052258 4.220332 56.344476 44.185635 -27.125070 -13.577537 23.060668 -44.590610 -3.795601 2.689528 16.840042 0.000000 0.000000 0.000000 0.000000 0.000000 0.000000 4.717052 -0.221276 21.422805 -3.423396 -2.335224 1.096841 -2.107400 -1.569160 2.317934 0.000000 0.000000 0.000000 1.945942 -1.218888 22.235412 -1.803908 -7.150427 0.936184 -7.174994 2.350779 3.054942 0.000000 0.000000 0.000000
-36.856652 82.517739 349.183604 -0.155948 3.211278 -22.048260 -0.064312 0.311328 22.046355 0.411135 0.013174 0.010896 6.744206 -16.643970 3.604588 0.000000 0.000000 0.000000 -1.838026 -11.994671 2.282407 -1.505340 9.142865 -1.348852 -12.006507 8.975378 -2.072645 5.039426 2.839577 3.664403 0.000000 0.000000 0.000000 0.000000 0.000000 0.000000 27.875426 55.617102 4.104635 55.484877 43.575826 -26.050115 -14.451084 25.671919 -48.412912 -0.560093 2.304552 23.222378 0.000000 0.000000 0.000000 0.000000 0.000000 0.000000 5.096978 -0.195077 21.385499 -3.392191 -2.392596 1.135709 -2.476327 -1.153882 2.432955 0.000000 0.000000 0.000000 2.381453 -1.035292 22.233454 -2.047714 -7.352680 0.937288 -7.204708 2.315671 2.964742 0.000000 0.000000 0.000000
-37.014390 82.455768 349.059757 -0.299282 3.257738 -22.031597 -0.041424 0.297711 22.029589 0.407704 0.009809 0.004994 6.759008 -16.695897 3.681433 0.000000 0.000000 0.000000 -1.885059 -11.768794 2.273433 -1.612869 9.116311 -1.243665 -10.505942 14.954032 -0.713264 5.345438 -4.429976 2.605372 0.000000 0.000000 0.000000 0.000000 0.000000 0.000000 29.280698 57.561345 3.468486 53.874608 41.898333 -23.971826 -17.029041 29.714956 -56.202391 4.182311 1.002344 31.812374 0.000000 0.000000 0.000000 0.000000 0.000000 0.000000 5.401952 -0.184509 21.381983 -3.401262 -2.467206 1.175848 -2.739785 -0.690861 2.476951 0.000000 0.000000 0.000000 2.727908 -0.888163 22.257975 -2.305777 -7.580175 0.932803 -6.973089 3.031661 3.001149 0.000000 0.000000 0.000000
-37.166803 82.395724 348.935853 -0.442752 3.365728 -22.033313 -0.028588 0.314027 22.031736 0.408602 0.036464 -0.001153 6.821284 -17.035789 3.849643 0.000000 0.000000 0.000000 -1.804890 -11.539248 2.208174 -1.530112 9.241187 -1.148338 -6.201976 17.842730 0.159682 0.854544 -8.170643 0.450263 0.000000 0.000000 0.000000 0.000000 0.000000 0.000000 30.214225 58.498448 3.194938 52.605771 40.632178 -22.765811 -18.057186 32.122836 -59.972929 6.029402 0.175413 34.719540 0.000000 0.000000 0.000000 0.000000 0.000000 0.000000 5.802252 -0.212825 21.399772 -3.587001 -2.511324 1.211833 -2.803205 -0.449498 2.454642 0.000000 0.000000 0.000000 3.129564 -0.821023 22.310846 -2.611802 -7.699783 0.901135 -8.329217 -1.310256 2.346808 0.000000 0.000000 0.000000
-37.250486 82.356401 348.837679 -0.517178 3.487140 -22.112829 -0.046444 0.345541 22.111103 0.402738 0.079424 -0.006409 6.790995 -17.380477 4.009936 0.000000 0.000000 0.000000 -1.714171 -11.303068 2.114148 -1.259685 9.485498 -1.085844 -3.551532 19.272534 0.605846 -1.422074 -10.651602 -0.820770 0.000000 0.000000 0.000000 0.000000 0.000000 0.000000 30.708532 58.251802 3.373575 52.231837 40.696662 -23.714490 -16.859617 31.217448 -57.766719 3.941311 -2.554076 29.334101 0.000000 0.000000 0.000000 0.000000 0.000000 0.000000 6.124399 -0.281264 21.498314 -3.856855 -2.509932 1.230153 -2.689877 -0.319495 2.361268 0.000000 0.000000 0.000000 3.393107 -0.821094 22.425394 -2.844557 -7.772196 0.869495 -5.812718 5.359047 3.014336 0.000000 0.000000 0.000000
